<?xml version="1.0" encoding="UTF-8" standalone="no"?>
<!-- Generator: Adobe Illustrator 19.0.0, SVG Export Plug-In . SVG Version: 6.00 Build 0)  -->

<svg
   xmlns:dc="http://purl.org/dc/elements/1.1/"
   xmlns:cc="http://creativecommons.org/ns#"
   xmlns:rdf="http://www.w3.org/1999/02/22-rdf-syntax-ns#"
   xmlns:svg="http://www.w3.org/2000/svg"
   xmlns="http://www.w3.org/2000/svg"
   xmlns:sodipodi="http://sodipodi.sourceforge.net/DTD/sodipodi-0.dtd"
   xmlns:inkscape="http://www.inkscape.org/namespaces/inkscape"
   version="1.1"
   id="Capa_1"
   x="0px"
   y="0px"
   viewBox="0 0 58 58"
   style="enable-background:new 0 0 58 58;"
   xml:space="preserve"
   sodipodi:docname="icon.svg"
   inkscape:version="0.92.2 5c3e80d, 2017-08-06"
   inkscape:export-filename="/home/tom/projects/securesync/web-extension/extension/images/icon.png"
   inkscape:export-xdpi="79.449997"
   inkscape:export-ydpi="79.449997"><metadata
     id="metadata1502"><rdf:RDF><cc:Work
         rdf:about=""><dc:format>image/svg+xml</dc:format><dc:type
           rdf:resource="http://purl.org/dc/dcmitype/StillImage" /></cc:Work></rdf:RDF></metadata><defs
     id="defs1500" /><sodipodi:namedview
     pagecolor="#ffffff"
     bordercolor="#666666"
     borderopacity="1"
     objecttolerance="10"
     gridtolerance="10"
     guidetolerance="10"
     inkscape:pageopacity="0"
     inkscape:pageshadow="2"
     inkscape:window-width="3832"
     inkscape:window-height="2088"
     id="namedview1498"
     showgrid="false"
     inkscape:zoom="5.7543862"
     inkscape:cx="8.5556778"
     inkscape:cy="40.578217"
     inkscape:window-x="0"
     inkscape:window-y="68"
     inkscape:window-maximized="0"
     inkscape:current-layer="Capa_1" /><path
     style="fill:#2aa924;fill-opacity:1"
     d="M29,0c0,0-6.667,8-22,8v19.085c0,9.966,4.328,19.577,12.164,25.735C21.937,55,25.208,56.875,29,58  c3.792-1.125,7.062-3,9.836-5.18C46.672,46.662,51,37.051,51,27.085V8C35.667,8,29,0,29,0z"
     id="path1463" /><path
     style="fill:#26e61c;fill-opacity:1"
     d="M29,51.661c-2.123-0.833-4.178-2.025-6.128-3.558C16.69,43.245,13,35.388,13,27.085V13.628  c7.391-0.943,12.639-3.514,16-5.798V51.661z"
     id="path1465" /><g
     id="g1467" /><g
     id="g1469" /><g
     id="g1471" /><g
     id="g1473" /><g
     id="g1475" /><g
     id="g1477" /><g
     id="g1479" /><g
     id="g1481" /><g
     id="g1483" /><g
     id="g1485" /><g
     id="g1487" /><g
     id="g1489" /><g
     id="g1491" /><g
     id="g1493" /><g
     id="g1495" /><g
     transform="matrix(0.06459484,0,0,0.06271697,15.219767,15.620369)"
     id="g2152"><g
       id="g2150"><g
         id="g2148"><path
           inkscape:connector-curvature="0"
           d="m 133.529,352.213 c -12.907,-23.147 -19.733,-51.52 -19.733,-82.24 0,-51.627 44.693,-93.653 99.52,-93.653 54.933,0 99.52,42.027 99.52,93.653 0,5.867 4.8,10.667 10.667,10.667 5.867,0 10.667,-4.8 10.667,-10.667 0,-63.467 -54.187,-114.987 -120.853,-114.987 -66.666,0 -120.855,51.627 -120.855,114.987 0,34.347 7.787,66.453 22.507,92.693 14.4,25.707 24.427,37.547 42.88,56.213 2.133,2.133 4.8,3.2 7.573,3.2 2.667,0 5.44,-0.96 7.36,-3.2 4.267,-4.053 4.267,-10.88 0.107,-15.04 -16.427,-16.532 -25.6,-27.092 -39.36,-51.626 z"
           id="path2138" /><path
           inkscape:connector-curvature="0"
           d="m 94.702,51.413 c 36.587,-19.947 76.48,-30.08 118.827,-30.08 42.453,0 77.973,9.067 118.827,30.187 1.6,0.747 3.2,1.173 4.907,1.173 v 0 c 3.84,0 7.573,-2.133 9.493,-5.76 2.667,-5.227 0.64,-11.733 -4.587,-14.4 C 298.649,10.027 258.969,0 213.529,0 167.662,0 124.249,10.987 84.462,32.64 c -5.227,2.88 -7.04,9.28 -4.267,14.507 2.88,5.226 9.28,7.04 14.507,4.266 z"
           id="path2140" /><path
           inkscape:connector-curvature="0"
           d="m 212.569,103.04 c -68.8,0 -131.733,38.507 -160.213,98.027 -9.707,20.16 -14.613,43.413 -14.613,69.013 0,28.8 5.12,56.32 15.573,84.373 2.133,5.547 8.213,8.32 13.76,6.293 5.547,-2.133 8.32,-8.213 6.293,-13.76 C 60.675,312.96 59.182,286.72 59.182,270.08 c 0,-22.4 4.16,-42.56 12.48,-59.84 24.96,-52.267 80.32,-85.973 141.013,-85.973 85.227,0 154.56,65.387 154.56,145.813 0,22.933 -19.947,41.493 -44.373,41.493 -24.426,0 -44.373,-18.667 -44.373,-41.493 0,-34.667 -29.44,-62.827 -65.707,-62.827 -36.267,0 -65.707,28.16 -65.707,62.827 0,42.133 16.427,81.707 46.187,111.36 23.04,22.933 45.227,35.52 79.253,44.8 0.853,0.32 1.813,0.427 2.773,0.427 4.693,0 8.96,-3.093 10.24,-7.787 1.6,-5.653 -1.813,-11.52 -7.467,-13.12 -30.08,-8.213 -49.707,-19.307 -69.867,-39.36 -25.707,-25.6 -39.893,-59.84 -39.893,-96.213 0,-22.933 19.947,-41.493 44.373,-41.493 24.426,0 44.373,18.667 44.373,41.493 0,34.667 29.547,62.827 65.707,62.827 36.16,0 65.707,-28.16 65.707,-62.827 10e-4,-92.16 -78.932,-167.147 -175.892,-167.147 z"
           id="path2142" /><path
           inkscape:connector-curvature="0"
           d="m 403.395,147.2 c -21.227,-29.653 -48.107,-52.907 -80,-69.333 -67.2,-34.56 -152.96,-34.453 -220.053,0.213 -32,16.533 -58.987,40 -80.107,69.867 -3.413,4.8 -2.24,11.413 2.56,14.827 1.92,1.28 4.053,1.92 6.187,1.92 3.307,0 6.613,-1.493 8.747,-4.373 19.093,-27.093 43.52,-48.32 72.427,-63.253 61.12,-31.573 139.307,-31.68 200.533,-0.213 28.8,14.72 53.12,35.84 72.32,62.72 3.413,4.8 10.133,5.867 14.933,2.453 4.8,-3.415 5.867,-10.028 2.453,-14.828 z"
           id="path2144" /><path
           inkscape:connector-curvature="0"
           d="m 340.569,359.253 c -8.533,1.493 -17.173,2.027 -22.293,2.027 -21.333,0 -39.04,-5.013 -54.08,-15.253 -25.92,-17.6 -41.387,-45.973 -41.387,-75.947 0,-5.867 -4.8,-10.667 -10.667,-10.667 -5.867,0 -10.667,4.8 -10.667,10.667 0,37.12 18.987,72.107 50.667,93.653 18.453,12.48 40.747,18.88 66.133,18.88 2.987,0 13.547,-0.107 26.027,-2.347 5.76,-1.067 9.707,-6.613 8.64,-12.373 -1.067,-5.76 -6.613,-9.706 -12.373,-8.64 z"
           id="path2146" /></g></g></g></svg>