<?xml version="1.0" encoding="UTF-8" standalone="no"?>
<!-- Generator: Adobe Illustrator 19.0.0, SVG Export Plug-In . SVG Version: 6.00 Build 0)  -->

<svg
   xmlns:dc="http://purl.org/dc/elements/1.1/"
   xmlns:cc="http://creativecommons.org/ns#"
   xmlns:rdf="http://www.w3.org/1999/02/22-rdf-syntax-ns#"
   xmlns:svg="http://www.w3.org/2000/svg"
   xmlns="http://www.w3.org/2000/svg"
   xmlns:sodipodi="http://sodipodi.sourceforge.net/DTD/sodipodi-0.dtd"
   xmlns:inkscape="http://www.inkscape.org/namespaces/inkscape"
   version="1.1"
   id="Capa_1"
   x="0px"
   y="0px"
   viewBox="0 0 58 58"
   style="enable-background:new 0 0 58 58;"
   xml:space="preserve"
   sodipodi:docname="sigBad.svg"
   inkscape:version="0.92.2 5c3e80d, 2017-08-06"
   inkscape:export-filename="/home/tom/projects/securesync/web-extension/extension/images/sigBad.png"
   inkscape:export-xdpi="79.449997"
   inkscape:export-ydpi="79.449997"><metadata
     id="metadata41"><rdf:RDF><cc:Work
         rdf:about=""><dc:format>image/svg+xml</dc:format><dc:type
           rdf:resource="http://purl.org/dc/dcmitype/StillImage" /><dc:title /></cc:Work></rdf:RDF></metadata><defs
     id="defs39" /><sodipodi:namedview
     pagecolor="#ffffff"
     bordercolor="#666666"
     borderopacity="1"
     objecttolerance="10"
     gridtolerance="10"
     guidetolerance="10"
     inkscape:pageopacity="0"
     inkscape:pageshadow="2"
     inkscape:window-width="3832"
     inkscape:window-height="2088"
     id="namedview37"
     showgrid="false"
     inkscape:zoom="5.7543862"
     inkscape:cx="10.072623"
     inkscape:cy="-1.908292"
     inkscape:window-x="0"
     inkscape:window-y="68"
     inkscape:window-maximized="0"
     inkscape:current-layer="Capa_1" /><path
     style="fill:#D75A4A;"
     d="M29,0c0,0-6.667,8-22,8v19.085c0,9.966,4.328,19.577,12.164,25.735C21.937,55,25.208,56.875,29,58  c3.792-1.125,7.062-3,9.836-5.18C46.672,46.662,51,37.051,51,27.085V8C35.667,8,29,0,29,0z"
     id="path2" /><path
     style="fill:#ED7161;"
     d="M29,51.661c-2.123-0.833-4.178-2.025-6.128-3.558C16.69,43.245,13,35.388,13,27.085V13.628  c7.391-0.943,12.639-3.514,16-5.798V51.661z"
     id="path4" /><g
     id="g6" /><g
     id="g8" /><g
     id="g10" /><g
     id="g12" /><g
     id="g14" /><g
     id="g16" /><g
     id="g18" /><g
     id="g20" /><g
     id="g22" /><g
     id="g24" /><g
     id="g26" /><g
     id="g28" /><g
     id="g30" /><g
     id="g32" /><g
     id="g34" /><flowRoot
     xml:space="preserve"
     id="flowRoot867"
     style="fill:black;stroke:none;stroke-opacity:1;stroke-width:1px;stroke-linejoin:miter;stroke-linecap:butt;fill-opacity:1;font-family:Sans;font-style:normal;font-weight:normal;font-size:1.25px;line-height:25px;letter-spacing:0px;word-spacing:0px"><flowRegion
       id="flowRegion869"><rect
         id="rect871"
         width="40.612289"
         height="46.817795"
         x="5.2224574"
         y="3.3792372" /></flowRegion><flowPara
       id="flowPara873" /></flowRoot><path
     id="path891"
     d="m 29,51.661 c 2.123,-0.833 4.178,-2.025 6.128,-3.558 C 41.31,43.245 45,35.388 45,27.085 V 13.628 C 37.609,12.685 32.361,10.114 29,7.83 Z"
     style="fill:#ed7161"
     inkscape:connector-curvature="0" /><g
     id="g889"
     transform="translate(0.09215847,-0.8294513)"><rect
       transform="rotate(45)"
       ry="1.3181177"
       rx="12.434418"
       y="-2.2760618"
       x="25.548147"
       height="5.8554754"
       width="31.970781"
       id="rect883"
       style="opacity:1;fill:#000000;fill-opacity:1;fill-rule:nonzero;stroke:#000000;stroke-width:0.58561009;stroke-miterlimit:0;stroke-dasharray:none;stroke-opacity:1" /><rect
       style="opacity:1;fill:#000000;fill-opacity:1;fill-rule:nonzero;stroke:#000000;stroke-width:0.58561009;stroke-miterlimit:0;stroke-dasharray:none;stroke-opacity:1"
       id="rect885"
       width="31.970781"
       height="5.8554754"
       x="-15.333714"
       y="38.605801"
       rx="12.434418"
       ry="1.3181177"
       transform="matrix(-0.70710678,0.70710678,0.70710678,0.70710678,0,0)" /></g></svg>