<?xml version="1.0" encoding="UTF-8" standalone="no"?>
<!-- Generator: Adobe Illustrator 19.0.0, SVG Export Plug-In . SVG Version: 6.00 Build 0)  -->

<svg
   xmlns:dc="http://purl.org/dc/elements/1.1/"
   xmlns:cc="http://creativecommons.org/ns#"
   xmlns:rdf="http://www.w3.org/1999/02/22-rdf-syntax-ns#"
   xmlns:svg="http://www.w3.org/2000/svg"
   xmlns="http://www.w3.org/2000/svg"
   xmlns:sodipodi="http://sodipodi.sourceforge.net/DTD/sodipodi-0.dtd"
   xmlns:inkscape="http://www.inkscape.org/namespaces/inkscape"
   version="1.1"
   id="Capa_1"
   x="0px"
   y="0px"
   viewBox="0 0 58 58"
   style="enable-background:new 0 0 58 58;"
   xml:space="preserve"
   sodipodi:docname="sigGood.svg"
   inkscape:version="0.92.2 5c3e80d, 2017-08-06"
   inkscape:export-filename="/home/tom/projects/securesync/web-extension/extension/images/sigGood.png"
   inkscape:export-xdpi="79.449997"
   inkscape:export-ydpi="79.449997"><metadata
     id="metadata41"><rdf:RDF><cc:Work
         rdf:about=""><dc:format>image/svg+xml</dc:format><dc:type
           rdf:resource="http://purl.org/dc/dcmitype/StillImage" /><dc:title /></cc:Work></rdf:RDF></metadata><defs
     id="defs39" /><sodipodi:namedview
     pagecolor="#ffffff"
     bordercolor="#666666"
     borderopacity="1"
     objecttolerance="10"
     gridtolerance="10"
     guidetolerance="10"
     inkscape:pageopacity="0"
     inkscape:pageshadow="2"
     inkscape:window-width="3832"
     inkscape:window-height="2088"
     id="namedview37"
     showgrid="false"
     inkscape:zoom="4.0689655"
     inkscape:cx="-52.646542"
     inkscape:cy="37.191099"
     inkscape:window-x="0"
     inkscape:window-y="68"
     inkscape:window-maximized="0"
     inkscape:current-layer="Capa_1" /><path
     style="fill:#2aa924;fill-opacity:1"
     d="M29,0c0,0-6.667,8-22,8v19.085c0,9.966,4.328,19.577,12.164,25.735C21.937,55,25.208,56.875,29,58  c3.792-1.125,7.062-3,9.836-5.18C46.672,46.662,51,37.051,51,27.085V8C35.667,8,29,0,29,0z"
     id="path2" /><path
     style="fill:#26e61c;fill-opacity:1"
     d="M 29 7.8300781 C 25.639 10.114078 20.391 12.685906 13 13.628906 L 13 27.085938 C 13 35.388937 16.689094 43.245516 22.871094 48.103516 C 24.821094 49.636516 26.877 50.827156 29 51.660156 C 31.123 50.827156 33.178906 49.636516 35.128906 48.103516 C 41.310906 43.245516 45 35.388937 45 27.085938 L 45 13.628906 C 37.609 12.685906 32.361 10.114078 29 7.8300781 z "
     id="path4" /><g
     id="g6" /><g
     id="g8" /><g
     id="g10" /><g
     id="g12" /><g
     id="g14" /><g
     id="g16" /><g
     id="g18" /><g
     id="g20" /><g
     id="g22" /><g
     id="g24" /><g
     id="g26" /><g
     id="g28" /><g
     id="g30" /><g
     id="g32" /><g
     id="g34" /><flowRoot
     xml:space="preserve"
     id="flowRoot867"
     style="fill:black;stroke:none;stroke-opacity:1;stroke-width:1px;stroke-linejoin:miter;stroke-linecap:butt;fill-opacity:1;font-family:Sans;font-style:normal;font-weight:normal;font-size:1.25px;line-height:25px;letter-spacing:0px;word-spacing:0px"><flowRegion
       id="flowRegion869"><rect
         id="rect871"
         width="40.612289"
         height="46.817795"
         x="5.2224574"
         y="3.3792372" /></flowRegion><flowPara
       id="flowPara873" /></flowRoot><path
     inkscape:connector-curvature="0"
     d="m 17.190243,30.06555 c -0.2,-0.2 -0.3,-0.5 -0.3,-0.7 0,-0.2 0.1,-0.5 0.3,-0.7 l 1.4,-1.4 c 0.4,-0.4 1,-0.4 1.4,0 l 0.1,0.1 5.5,5.9 c 0.2,0.2 0.5,0.2 0.7,0 l 13.4,-13.9 h 0.1 v 0 c 0.4,-0.4 1,-0.4 1.4,0 l 1.4,1.4 c 0.4,0.4 0.4,1 0,1.4 v 0 l -16,16.6 c -0.2,0.2 -0.4,0.3 -0.7,0.3 -0.3,0 -0.5,-0.1 -0.7,-0.3 l -7.8,-8.4 z"
     id="path895" /></svg>